<?xml version="1.0" standalone="no"?>
<!DOCTYPE svg PUBLIC "-//W3C//DTD SVG 20010904//EN"
 "http://www.w3.org/TR/2001/REC-SVG-20010904/DTD/svg10.dtd">
<svg version="1.0" xmlns="http://www.w3.org/2000/svg"
 width="7863.000000pt" height="7882.000000pt" viewBox="0 0 7863.000000 7882.000000"
 preserveAspectRatio="xMidYMid meet">

<g transform="translate(0.000000,7882.000000) scale(0.100000,-0.100000)"
fill="#000000" stroke="none">
<path d="M36925 76430 c-1314 -1314 -2387 -2391 -2385 -2393 3 -3 50 9 105 25
196 57 644 167 860 212 535 109 995 169 1630 211 127 8 321 21 430 30 514 37
665 40 2230 40 1622 0 1603 0 1880 -46 1393 -234 2502 -1281 2769 -2616 65
-327 60 98 63 -4978 l3 -4600 11408 -11407 11407 -11408 -5004 -5004 -5004
-5004 155 -173 c1701 -1910 3088 -4116 4060 -6459 61 -146 116 -281 124 -300
l15 -34 8479 8479 c4664 4664 8480 8487 8480 8495 0 13 -39297 39320 -39310
39320 -3 0 -1080 -1075 -2395 -2390z"/>
<path d="M38345 73163 c-184 -5 -556 -24 -740 -38 -104 -8 -296 -21 -425 -30
-811 -54 -1441 -163 -2190 -378 -767 -222 -2449 -724 -2955 -882 -589 -185
-834 -276 -1469 -549 -2418 -1039 -4617 -2446 -6541 -4185 -563 -508 -1213
-1161 -1710 -1716 -1997 -2231 -3493 -4793 -4415 -7565 -950 -2852 -1265
-5885 -924 -8885 458 -4031 2119 -7883 4783 -11095 763 -921 1651 -1829 2587
-2647 1144 -999 2454 -1928 3814 -2703 1647 -939 3465 -1703 5325 -2240 116
-33 218 -63 228 -66 16 -5 17 189 17 3978 l0 3983 -163 74 c-1124 514 -2292
1233 -3257 2006 -702 562 -1383 1217 -1945 1870 -1679 1951 -2812 4344 -3294
6955 -240 1302 -288 2423 -155 3680 277 2631 1316 5133 3008 7245 368 459 641
762 1110 1231 475 474 789 757 1266 1139 1388 1112 2967 1985 4663 2579 l157
55 0 -24709 0 -24710 48 0 c115 0 542 22 702 35 1753 151 3378 828 4690 1954
176 151 538 507 703 691 1034 1155 1664 2563 1817 4060 10 107 24 303 30 435
14 326 14 48511 0 48678 -20 244 -82 461 -191 677 -304 598 -915 1000 -1623
1069 -96 10 -2651 13 -2951 4z"/>
<path d="M7900 47405 l-7905 -7905 19663 -19662 19662 -19663 6545 6545 6545
6545 0 1061 c0 1059 0 1062 -25 1300 -45 435 -102 810 -184 1214 -363 1795
-1140 3518 -2259 5015 -58 77 -107 142 -109 145 -2 2 -2368 -2360 -5258 -5250
l-5255 -5255 -1389 1389 -1389 1389 -173 -22 c-186 -23 -411 -44 -654 -62 -83
-6 -557 -13 -1067 -16 l-918 -5 0 1458 0 1459 -11207 11207 -11208 11208 2579
2579 2579 2579 -71 234 c-408 1330 -694 2760 -836 4173 -199 1980 -133 3949
200 5930 25 149 48 280 51 293 3 12 1 22 -3 22 -5 0 -3566 -3557 -7914 -7905z"/>
<path d="M44510 31663 l0 -3949 83 -34 c453 -184 1135 -514 1612 -780 1766
-987 3301 -2278 4540 -3820 1645 -2046 2677 -4470 2989 -7020 14 -113 28 -238
32 -277 5 -51 11 -73 20 -73 11 0 14 -623 17 -3862 3 -4223 -1 -3887 58 -4328
104 -776 351 -1553 718 -2265 945 -1833 2645 -3224 4716 -3860 715 -220 1486
-345 2228 -362 l267 -6 0 7389 c0 7330 0 7392 -20 7639 -268 3296 -1306 6439
-3078 9315 -177 288 -579 895 -772 1165 -1016 1425 -2184 2713 -3530 3894
-1326 1164 -2779 2171 -4370 3031 -284 153 -1004 513 -1300 649 -1287 593
-2629 1079 -3965 1436 -115 30 -218 58 -227 61 -17 5 -18 -187 -18 -3943z"/>
</g>
</svg>
